<svg xmlns="http://www.w3.org/2000/svg" version="1.1" xmlns:xlink="http://www.w3.org/1999/xlink" xmlns:svgjs="http://svgjs.com/svgjs" width="1000" height="1000"><rect width="1000" height="1000" rx="300" ry="300" fill="#000000"></rect><g transform="matrix(1.6,0,0,1.6,100,100)"><svg xmlns="http://www.w3.org/2000/svg" version="1.1" xmlns:xlink="http://www.w3.org/1999/xlink" xmlns:svgjs="http://svgjs.com/svgjs" width="500" height="500"><svg xmlns="http://www.w3.org/2000/svg" xmlns:xlink="http://www.w3.org/1999/xlink" width="500" zoomAndPan="magnify" viewBox="0 0 375 374.999991" height="500" preserveAspectRatio="xMidYMid meet" version="1.0"><defs><clipPath id="8ee8d224b0"><path d="M 37.5 82.605469 L 165 82.605469 L 165 294 L 37.5 294 Z M 37.5 82.605469 " clip-rule="nonzero"></path></clipPath><clipPath id="38f5f065e4"><path d="M 210.039062 82.605469 L 337.492188 82.605469 L 337.492188 294 L 210.039062 294 Z M 210.039062 82.605469 " clip-rule="nonzero"></path></clipPath></defs><rect x="-37.5" width="450" fill="#ffffff" y="-37.499999" height="449.999989" fill-opacity="1"></rect><rect x="-37.5" width="450" fill="#ffffff" y="-37.499999" height="449.999989" fill-opacity="1"></rect><rect x="-37.5" width="450" fill="#000000" y="-37.499999" height="449.999989" fill-opacity="1"></rect><g clip-path="url(#8ee8d224b0)"><path fill="#ffffff" d="M 142.746094 293.871094 L 37.519531 188.703125 L 143.476562 82.808594 L 165.023438 104.339844 L 80.609375 188.703125 L 164.292969 272.339844 L 142.746094 293.871094 " fill-opacity="1" fill-rule="nonzero"></path></g><g clip-path="url(#38f5f065e4)"><path fill="#ffffff" d="M 232.246094 293.871094 L 337.472656 188.703125 L 231.515625 82.808594 L 209.96875 104.339844 L 294.382812 188.703125 L 210.699219 272.339844 L 232.246094 293.871094 " fill-opacity="1" fill-rule="nonzero"></path></g></svg></svg></g></svg>